<mxfile host="65bd71144e">
    <diagram id="0G311H5GXEr30zsFwnbZ" name="第 1 页">
        <mxGraphModel dx="1432" dy="745" grid="1" gridSize="10" guides="1" tooltips="1" connect="1" arrows="1" fold="1" page="1" pageScale="1" pageWidth="1169" pageHeight="1654" math="0" shadow="0">
            <root>
                <mxCell id="0"/>
                <mxCell id="1" parent="0"/>
                <mxCell id="11" value="浏览者" style="ellipse;whiteSpace=wrap;html=1;aspect=fixed;strokeColor=#33FF33;strokeWidth=2;" parent="1" vertex="1">
                    <mxGeometry x="240" y="240" width="80" height="80" as="geometry"/>
                </mxCell>
                <mxCell id="24" value="" style="edgeStyle=none;html=1;fillColor=#d80073;strokeColor=#A50040;strokeWidth=4;endArrow=block;endFill=1;" parent="1" source="43" target="11" edge="1">
                    <mxGeometry relative="1" as="geometry">
                        <Array as="points"/>
                    </mxGeometry>
                </mxCell>
                <mxCell id="32" style="edgeStyle=none;html=1;strokeWidth=4;fillColor=#d80073;strokeColor=#A50040;endArrow=block;endFill=1;" parent="1" source="43" target="28" edge="1">
                    <mxGeometry relative="1" as="geometry">
                        <Array as="points"/>
                    </mxGeometry>
                </mxCell>
                <mxCell id="21" style="edgeStyle=none;html=1;strokeColor=#FFFFFF;strokeWidth=3;endArrow=block;endFill=1;" parent="1" source="14" target="16" edge="1">
                    <mxGeometry relative="1" as="geometry"/>
                </mxCell>
                <mxCell id="14" value="内容发布" style="ellipse;whiteSpace=wrap;html=1;aspect=fixed;strokeColor=#33FF33;strokeWidth=2;" parent="1" vertex="1">
                    <mxGeometry x="240" y="480" width="80" height="80" as="geometry"/>
                </mxCell>
                <mxCell id="22" value="" style="edgeStyle=none;html=1;strokeColor=#FFFFFF;strokeWidth=3;endArrow=block;endFill=1;" parent="1" source="16" target="11" edge="1">
                    <mxGeometry relative="1" as="geometry"/>
                </mxCell>
                <mxCell id="27" style="edgeStyle=none;html=1;fillColor=#d80073;strokeColor=#A50040;strokeWidth=4;endArrow=block;endFill=1;" parent="1" source="43" target="14" edge="1">
                    <mxGeometry relative="1" as="geometry">
                        <mxPoint x="310" y="190" as="targetPoint"/>
                        <Array as="points"/>
                    </mxGeometry>
                </mxCell>
                <mxCell id="16" value="存储者" style="ellipse;whiteSpace=wrap;html=1;aspect=fixed;strokeColor=#33FF33;strokeWidth=2;" parent="1" vertex="1">
                    <mxGeometry x="240" y="360" width="80" height="80" as="geometry"/>
                </mxCell>
                <mxCell id="23" style="edgeStyle=none;html=1;strokeWidth=3;endArrow=block;endFill=1;" parent="1" source="18" target="14" edge="1">
                    <mxGeometry relative="1" as="geometry"/>
                </mxCell>
                <mxCell id="26" style="edgeStyle=none;html=1;fillColor=#d80073;strokeColor=#A50040;strokeWidth=4;endArrow=block;endFill=1;" parent="1" source="18" target="43" edge="1">
                    <mxGeometry relative="1" as="geometry">
                        <Array as="points"/>
                    </mxGeometry>
                </mxCell>
                <mxCell id="18" value="广告投放" style="ellipse;whiteSpace=wrap;html=1;aspect=fixed;strokeColor=#33FF33;strokeWidth=2;" parent="1" vertex="1">
                    <mxGeometry x="720" y="480" width="80" height="80" as="geometry"/>
                </mxCell>
                <mxCell id="28" value="特殊功能服务" style="ellipse;whiteSpace=wrap;html=1;aspect=fixed;strokeColor=#33FF33;strokeWidth=2;" parent="1" vertex="1">
                    <mxGeometry x="240" y="120" width="80" height="80" as="geometry"/>
                </mxCell>
                <mxCell id="30" style="edgeStyle=none;html=1;strokeWidth=4;fillColor=#d80073;strokeColor=#A50040;endArrow=block;endFill=1;" parent="1" source="29" target="43" edge="1">
                    <mxGeometry relative="1" as="geometry">
                        <Array as="points"/>
                    </mxGeometry>
                </mxCell>
                <mxCell id="29" value="电商引流" style="ellipse;whiteSpace=wrap;html=1;aspect=fixed;strokeColor=#33FF33;strokeWidth=2;" parent="1" vertex="1">
                    <mxGeometry x="720" y="360" width="80" height="80" as="geometry"/>
                </mxCell>
                <mxCell id="34" style="edgeStyle=none;html=1;strokeWidth=4;fillColor=#d80073;strokeColor=#A50040;endArrow=block;endFill=1;" parent="1" source="33" target="43" edge="1">
                    <mxGeometry relative="1" as="geometry">
                        <Array as="points"/>
                    </mxGeometry>
                </mxCell>
                <mxCell id="33" value="第三方推广" style="ellipse;whiteSpace=wrap;html=1;aspect=fixed;strokeColor=#33FF33;strokeWidth=2;" parent="1" vertex="1">
                    <mxGeometry x="720" y="240" width="80" height="80" as="geometry"/>
                </mxCell>
                <mxCell id="36" style="edgeStyle=none;html=1;strokeWidth=4;fillColor=#d80073;strokeColor=#A50040;endArrow=block;endFill=1;" parent="1" source="35" target="43" edge="1">
                    <mxGeometry relative="1" as="geometry"/>
                </mxCell>
                <mxCell id="35" value="付费内容" style="ellipse;whiteSpace=wrap;html=1;aspect=fixed;strokeColor=#33FF33;strokeWidth=2;" parent="1" vertex="1">
                    <mxGeometry x="720" y="120" width="80" height="80" as="geometry"/>
                </mxCell>
                <mxCell id="38" style="edgeStyle=none;html=1;strokeWidth=4;fillColor=#d80073;strokeColor=#A50040;" parent="1" edge="1">
                    <mxGeometry relative="1" as="geometry">
                        <mxPoint x="40" y="50" as="sourcePoint"/>
                        <mxPoint x="80" y="50" as="targetPoint"/>
                    </mxGeometry>
                </mxCell>
                <mxCell id="39" value="" style="edgeStyle=none;html=1;strokeWidth=3;" parent="1" edge="1">
                    <mxGeometry relative="1" as="geometry">
                        <mxPoint x="40" y="90" as="sourcePoint"/>
                        <mxPoint x="80" y="90" as="targetPoint"/>
                    </mxGeometry>
                </mxCell>
                <mxCell id="40" value="价值流动" style="text;html=1;align=center;verticalAlign=middle;resizable=0;points=[];autosize=1;strokeColor=none;fillColor=none;" parent="1" vertex="1">
                    <mxGeometry x="80" y="40" width="60" height="20" as="geometry"/>
                </mxCell>
                <mxCell id="41" value="内容流动" style="text;html=1;align=center;verticalAlign=middle;resizable=0;points=[];autosize=1;strokeColor=none;fillColor=none;" parent="1" vertex="1">
                    <mxGeometry x="80" y="80" width="60" height="20" as="geometry"/>
                </mxCell>
                <mxCell id="42" style="edgeStyle=none;html=1;fillColor=#d80073;strokeColor=#A50040;strokeWidth=4;endArrow=block;endFill=1;" edge="1" parent="1" source="43" target="16">
                    <mxGeometry relative="1" as="geometry">
                        <mxPoint x="291.774313319095" y="505.7019956971626" as="targetPoint"/>
                        <Array as="points"/>
                        <mxPoint x="503.0930882401476" y="319.5976029358376" as="sourcePoint"/>
                    </mxGeometry>
                </mxCell>
                <mxCell id="43" value="&lt;span style=&quot;color: rgba(0 , 0 , 0 , 0) ; font-family: monospace ; font-size: 0px&quot;&gt;%3CmxGraphModel%3E%3Croot%3E%3CmxCell%20id%3D%220%22%2F%3E%3CmxCell%20id%3D%221%22%20parent%3D%220%22%2F%3E%3CmxCell%20id%3D%222%22%20style%3D%22edgeStyle%3Dnone%3Bhtml%3D1%3BfillColor%3D%23d80073%3BstrokeColor%3D%23A50040%3BstrokeWidth%3D4%3B%22%20edge%3D%221%22%20parent%3D%221%22%3E%3CmxGeometry%20relative%3D%221%22%20as%3D%22geometry%22%3E%3CmxPoint%20x%3D%22281.774313319095%22%20y%3D%22495.7019956971626%22%20as%3D%22targetPoint%22%2F%3E%3CArray%20as%3D%22points%22%3E%3CmxPoint%20x%3D%22420%22%20y%3D%22390%22%2F%3E%3C%2FArray%3E%3CmxPoint%20x%3D%22493.0930882401476%22%20y%3D%22309.5976029358376%22%20as%3D%22sourcePoint%22%2F%3E%3C%2FmxGeometry%3E%3C%2FmxCell%3E%3C%2Froot%3E%3C%2FmxGraphModel%3E&lt;/span&gt;平台激励" style="shape=hexagon;perimeter=hexagonPerimeter2;whiteSpace=wrap;html=1;fixedSize=1;strokeColor=#33FF33;size=25.5;strokeWidth=2;" vertex="1" parent="1">
                    <mxGeometry x="465" y="280" width="120" height="80" as="geometry"/>
                </mxCell>
                <mxCell id="45" value="节点推荐、内容分析、内容推荐、结算服务" style="whiteSpace=wrap;html=1;shape=partialRectangle;top=0;left=0;bottom=1;right=0;points=[[0,1],[1,1]];fillColor=none;align=center;verticalAlign=bottom;routingCenterY=0.5;snapToPoint=1;recursiveResize=0;autosize=1;treeFolding=1;treeMoving=1;newEdgeStyle={&quot;edgeStyle&quot;:&quot;entityRelationEdgeStyle&quot;,&quot;startArrow&quot;:&quot;none&quot;,&quot;endArrow&quot;:&quot;none&quot;,&quot;segment&quot;:10,&quot;curved&quot;:1};strokeColor=#33FF33;strokeWidth=2;" vertex="1" parent="1">
                    <mxGeometry x="370" y="110" width="260" height="20" as="geometry"/>
                </mxCell>
                <mxCell id="46" value="" style="edgeStyle=entityRelationEdgeStyle;startArrow=none;endArrow=none;segment=10;curved=1;strokeColor=#FFFFFF;strokeWidth=1;endSize=1;" edge="1" target="45" parent="1" source="28">
                    <mxGeometry relative="1" as="geometry">
                        <mxPoint x="330" y="100" as="sourcePoint"/>
                    </mxGeometry>
                </mxCell>
            </root>
        </mxGraphModel>
    </diagram>
</mxfile>